<svg width="1217" height="482" viewBox="0 0 1217 482" fill="none" xmlns="http://www.w3.org/2000/svg">
<path d="M632 169V123C632 114.163 639.163 107 648 107H674C682.837 107 690 99.8365 690 91V1" stroke="url(#paint0_linear_17_40)" stroke-width="1.5" stroke-dasharray="8 8"/>
<path d="M584.75 1V167" stroke="url(#paint1_linear_17_40)" stroke-width="1.5" stroke-dasharray="8 8"/>
<path d="M455 157V178C455 186.837 462.163 194 471 194H554" stroke="#323238" stroke-width="1.5" stroke-dasharray="8 8"/>
<path d="M165 1V125C165 133.837 172.163 141 181 141H240" stroke="url(#paint2_linear_17_40)" stroke-width="1.5" stroke-dasharray="8 8"/>
<path d="M455 157C455 148.163 447.837 141 439 141H225" stroke="#323238" stroke-width="1.5" stroke-dasharray="8 8"/>
<path d="M108 267V246C108 237.163 115.163 230 124 230H554" stroke="#323238" stroke-width="1.5" stroke-dasharray="8 8"/>
<path d="M108 265V281C108 289.837 100.837 297 92 297H1" stroke="url(#paint3_linear_17_40)" stroke-width="1.5" stroke-dasharray="8 8"/>
<path d="M231 399V423C231 431.837 223.837 439 215 439H0" stroke="url(#paint4_linear_17_40)" stroke-width="1.5" stroke-dasharray="8 8"/>
<path d="M504 296V275C504 266.163 511.163 259 520 259H554" stroke="#323238" stroke-width="1.5" stroke-dasharray="8 8"/>
<path d="M231 399V328C231 319.163 238.163 312 247 312H281" stroke="#323238" stroke-width="1.5" stroke-dasharray="8 8"/>
<path d="M504 296C504 304.837 496.837 312 488 312H281" stroke="#323238" stroke-width="1.5" stroke-dasharray="8 8"/>
<path d="M609.47 343.53C609.763 343.823 610.237 343.823 610.53 343.53L615.303 338.757C615.596 338.464 615.596 337.99 615.303 337.697C615.01 337.404 614.536 337.404 614.243 337.697L610 341.939L605.757 337.697C605.464 337.404 604.99 337.404 604.697 337.697C604.404 337.99 604.404 338.464 604.697 338.757L609.47 343.53ZM609.25 280V283.937L610.75 283.938V280H609.25ZM609.25 291.812V299.687L610.75 299.688V291.813L609.25 291.812ZM609.25 307.562V315.437L610.75 315.438V307.563L609.25 307.562ZM609.25 323.312V331.187L610.75 331.188V323.313L609.25 323.312ZM609.25 339.062V343H610.75V339.063L609.25 339.062Z" fill="#323238"/>
<path d="M993 431V359C993 350.163 985.837 343 977 343H933" stroke="#323238" stroke-width="1.5" stroke-dasharray="8 8"/>
<path d="M993 431V444C993 452.837 1000.16 460 1009 460H1217" stroke="url(#paint5_linear_17_40)" stroke-width="1.5" stroke-dasharray="8 8"/>
<path d="M759 296V275C759 266.163 751.837 259 743 259H664" stroke="#323238" stroke-width="1.5" stroke-dasharray="8 8"/>
<path d="M759 296V327C759 335.837 766.163 343 775 343H933" stroke="#323238" stroke-width="1.5" stroke-dasharray="8 8"/>
<path d="M1016 270V246C1016 237.163 1008.84 230 1000 230H664" stroke="#323238" stroke-width="1.5" stroke-dasharray="8 8"/>
<path d="M1016 268V281C1016 289.837 1023.16 297 1032 297H1113" stroke="#323238" stroke-width="1.5" stroke-dasharray="8 8"/>
<path d="M1160 224V211C1160 202.163 1167.16 195 1176 195H1217" stroke="url(#paint6_linear_17_40)" stroke-width="1.5" stroke-dasharray="8 8"/>
<path d="M1160 224V281C1160 289.837 1152.84 297 1144 297H1094" stroke="#323238" stroke-width="1.5" stroke-dasharray="8 8"/>
<path d="M1113 0.999996V117C1113 125.837 1105.84 133 1097 133H1050" stroke="url(#paint7_linear_17_40)" stroke-width="1.5" stroke-dasharray="8 8"/>
<path d="M726 149V170C726 178.837 718.837 186 710 186H664" stroke="#323238" stroke-width="1.5" stroke-dasharray="8 8"/>
<path d="M726 149C726 140.163 733.163 133 742 133H1050" stroke="#323238" stroke-width="1.5" stroke-dasharray="8 8"/>
<path d="M382 109.5H334C330.962 109.5 328.5 111.962 328.5 115V163C328.5 166.038 330.962 168.5 334 168.5H382C385.038 168.5 387.5 166.038 387.5 163V115C387.5 111.962 385.038 109.5 382 109.5Z" fill="#121214"/>
<path d="M382 109.5H334C330.962 109.5 328.5 111.962 328.5 115V163C328.5 166.038 330.962 168.5 334 168.5H382C385.038 168.5 387.5 166.038 387.5 163V115C387.5 111.962 385.038 109.5 382 109.5Z" fill="url(#paint8_linear_17_40)"/>
<path d="M359.349 151.972C359.041 151.685 358.718 151.398 358.411 151.08C358.165 151.319 357.935 151.542 357.689 151.765C354.646 154.516 351.512 155.662 349.652 154.548C347.854 153.482 347.285 150.331 348.008 146.369C348.085 145.939 348.177 145.509 348.285 145.08C347.962 144.984 347.654 144.889 347.347 144.778C343.52 143.411 341 141.181 341 138.953C341 136.806 343.353 134.721 347.024 133.384C347.439 133.241 347.869 133.098 348.315 132.971C348.207 132.557 348.13 132.159 348.053 131.777C347.285 127.75 347.823 124.537 349.637 123.455C351.527 122.309 354.662 123.534 357.812 126.415C357.996 126.59 358.181 126.78 358.38 126.971C358.673 126.685 358.949 126.397 359.241 126.145C362.224 123.455 365.189 122.325 367.001 123.407C368.891 124.521 369.445 127.959 368.599 132.206C368.553 132.477 368.492 132.731 368.431 133.002C368.815 133.114 369.199 133.241 369.552 133.368C373.302 134.705 375.73 136.789 375.7 138.985C375.7 141.23 373.103 143.441 369.122 144.809C368.907 144.873 368.692 144.952 368.477 145.018C368.569 145.336 368.631 145.654 368.692 145.972C369.493 150.096 368.877 153.468 367.018 154.582C366.523 154.868 365.964 155.012 365.399 154.999C363.692 155 361.528 153.909 359.349 151.972ZM362.361 146.132C361.474 147.47 360.504 148.746 359.458 149.951C359.749 150.254 360.041 150.526 360.334 150.779C362.869 153.038 365.205 153.882 366.296 153.229C366.803 152.927 367.233 152.163 367.434 151.002C367.656 149.423 367.593 147.814 367.249 146.26C367.203 145.973 367.141 145.685 367.064 145.384C365.513 145.736 363.942 145.985 362.36 146.13L362.361 146.132ZM349.483 146.642C348.853 150.031 349.314 152.561 350.405 153.213C350.913 153.516 351.757 153.516 352.833 153.118C354.267 152.537 355.585 151.684 356.721 150.604C356.952 150.413 357.167 150.19 357.397 149.967C356.327 148.761 355.331 147.484 354.415 146.146C352.84 146.018 351.275 145.784 349.729 145.447C349.637 145.86 349.56 146.257 349.482 146.639L349.483 146.642ZM358.427 148.869C359.103 148.089 359.778 147.23 360.456 146.275C359.779 146.307 359.073 146.323 358.366 146.323C357.674 146.323 356.998 146.307 356.338 146.275C356.991 147.175 357.689 148.041 358.426 148.867L358.427 148.869ZM355.199 133.336C354.616 134.211 354.048 135.134 353.509 136.103C352.971 137.057 352.479 138.028 352.033 138.998C352.494 139.953 352.984 140.924 353.524 141.911C354.062 142.865 354.631 143.804 355.214 144.695C356.229 144.759 357.289 144.791 358.365 144.791C359.456 144.791 360.517 144.759 361.545 144.679C362.099 143.804 362.667 142.865 363.205 141.894C363.743 140.923 364.25 139.937 364.696 138.983C364.25 138.043 363.745 137.073 363.205 136.103C362.666 135.132 362.099 134.209 361.53 133.336C360.501 133.256 359.44 133.208 358.365 133.208C357.29 133.208 356.229 133.257 355.199 133.336ZM350.128 143.981C351.184 144.215 352.251 144.391 353.325 144.507C352.956 143.902 352.587 143.298 352.234 142.661C351.896 142.041 351.557 141.42 351.25 140.8C350.823 141.839 350.448 142.901 350.128 143.981ZM364.494 142.645C364.141 143.281 363.787 143.886 363.434 144.475C364.524 144.342 365.606 144.15 366.677 143.901C366.342 142.824 365.952 141.767 365.508 140.734C365.187 141.37 364.85 142.007 364.496 142.645H364.494ZM347.5 134.85C344.366 135.995 342.476 137.669 342.476 138.971C342.476 139.576 342.906 140.339 343.766 141.103C344.981 142.09 346.355 142.844 347.823 143.33C348.1 143.426 348.392 143.505 348.684 143.601C349.158 142.031 349.727 140.495 350.39 139.002C349.726 137.533 349.161 136.018 348.699 134.467C348.284 134.577 347.885 134.705 347.5 134.85ZM366.356 138.971C367.037 140.445 367.623 141.965 368.108 143.522C368.308 143.458 368.508 143.394 368.692 143.331C372.119 142.153 374.24 140.355 374.255 138.954C374.255 137.649 372.288 135.963 369.076 134.817C368.754 134.706 368.4 134.595 368.047 134.483C367.578 136.016 367.014 137.514 366.356 138.969V138.971ZM364.481 135.309C364.835 135.945 365.173 136.567 365.482 137.188C365.908 136.177 366.278 135.141 366.589 134.086C365.543 133.839 364.487 133.647 363.423 133.511C363.789 134.1 364.143 134.689 364.481 135.309ZM350.143 134.067C350.451 135.085 350.819 136.119 351.25 137.185C351.557 136.565 351.896 135.944 352.234 135.324C352.571 134.704 352.925 134.099 353.294 133.51C352.188 133.655 351.143 133.846 350.143 134.067ZM360.209 127.306C359.948 127.544 359.687 127.799 359.426 128.054C360.488 129.243 361.469 130.508 362.361 131.841C363.922 131.987 365.472 132.242 367.001 132.605C367.063 132.367 367.109 132.127 367.155 131.889C367.877 128.23 367.432 125.428 366.263 124.729C366.004 124.589 365.714 124.521 365.422 124.53C364.167 124.53 362.241 125.479 360.209 127.306ZM350.374 124.775C349.283 125.427 348.853 128.037 349.498 131.474C349.575 131.839 349.652 132.205 349.744 132.587C351.275 132.238 352.825 131.989 354.385 131.84C355.28 130.506 356.266 129.24 357.335 128.053C357.166 127.877 356.982 127.718 356.813 127.559C354.672 125.594 352.618 124.557 351.275 124.557C350.962 124.546 350.651 124.621 350.374 124.775ZM360.424 131.712C359.789 130.82 359.107 129.964 358.38 129.151C357.689 129.93 356.997 130.79 356.321 131.712C356.997 131.681 357.673 131.665 358.365 131.665C359.057 131.665 359.748 131.681 360.424 131.712ZM355.29 139.033C355.286 138.392 355.464 137.764 355.803 137.229C356.141 136.694 356.624 136.276 357.191 136.027C357.758 135.779 358.382 135.711 358.986 135.834C359.589 135.956 360.144 136.263 360.58 136.714C361.016 137.166 361.314 137.743 361.436 138.371C361.557 139 361.497 139.651 361.263 140.244C361.028 140.837 360.631 141.344 360.12 141.7C359.609 142.057 359.008 142.247 358.393 142.247C357.987 142.25 357.584 142.169 357.208 142.008C356.832 141.848 356.49 141.612 356.201 141.313C355.913 141.014 355.684 140.659 355.527 140.268C355.371 139.877 355.29 139.457 355.29 139.033Z" fill="#81D8F7"/>
<path d="M382 109.5H334C330.962 109.5 328.5 111.962 328.5 115V163C328.5 166.038 330.962 168.5 334 168.5H382C385.038 168.5 387.5 166.038 387.5 163V115C387.5 111.962 385.038 109.5 382 109.5Z" stroke="url(#paint9_linear_17_40)"/>
<path d="M887 199.5H839C835.962 199.5 833.5 201.962 833.5 205V253C833.5 256.038 835.962 258.5 839 258.5H887C890.038 258.5 892.5 256.038 892.5 253V205C892.5 201.962 890.038 199.5 887 199.5Z" fill="#121214"/>
<path d="M887 199.5H839C835.962 199.5 833.5 201.962 833.5 205V253C833.5 256.038 835.962 258.5 839 258.5H887C890.038 258.5 892.5 256.038 892.5 253V205C892.5 201.962 890.038 199.5 887 199.5Z" fill="url(#paint10_linear_17_40)"/>
<path d="M864.349 241.972C864.041 241.685 863.718 241.398 863.411 241.08C863.165 241.319 862.935 241.542 862.689 241.765C859.646 244.516 856.512 245.662 854.652 244.548C852.854 243.482 852.285 240.331 853.008 236.369C853.085 235.939 853.177 235.509 853.285 235.08C852.962 234.984 852.654 234.889 852.347 234.778C848.52 233.411 846 231.181 846 228.953C846 226.806 848.353 224.721 852.024 223.384C852.439 223.241 852.869 223.098 853.315 222.971C853.207 222.557 853.13 222.159 853.053 221.777C852.285 217.75 852.823 214.537 854.637 213.455C856.527 212.309 859.662 213.534 862.812 216.415C862.996 216.59 863.181 216.78 863.38 216.971C863.673 216.685 863.949 216.397 864.241 216.145C867.224 213.455 870.189 212.325 872.001 213.407C873.891 214.521 874.445 217.959 873.599 222.206C873.553 222.477 873.492 222.731 873.431 223.002C873.815 223.114 874.199 223.241 874.552 223.368C878.302 224.705 880.73 226.789 880.7 228.985C880.7 231.23 878.103 233.441 874.122 234.809C873.907 234.873 873.692 234.952 873.477 235.018C873.569 235.336 873.631 235.654 873.692 235.972C874.493 240.096 873.877 243.468 872.018 244.582C871.523 244.868 870.964 245.012 870.399 244.999C868.692 245 866.528 243.909 864.349 241.972ZM867.361 236.132C866.474 237.47 865.504 238.746 864.458 239.951C864.749 240.254 865.041 240.526 865.334 240.779C867.869 243.038 870.205 243.882 871.296 243.229C871.803 242.927 872.233 242.163 872.434 241.002C872.656 239.423 872.593 237.814 872.249 236.26C872.203 235.973 872.141 235.685 872.064 235.384C870.513 235.736 868.942 235.985 867.36 236.13L867.361 236.132ZM854.483 236.642C853.853 240.031 854.314 242.561 855.405 243.213C855.913 243.516 856.757 243.516 857.833 243.118C859.267 242.537 860.585 241.684 861.721 240.604C861.952 240.413 862.167 240.19 862.397 239.967C861.327 238.761 860.331 237.484 859.415 236.146C857.84 236.018 856.275 235.784 854.729 235.447C854.637 235.86 854.56 236.257 854.482 236.639L854.483 236.642ZM863.427 238.869C864.103 238.089 864.778 237.23 865.456 236.275C864.779 236.307 864.073 236.323 863.366 236.323C862.674 236.323 861.998 236.307 861.338 236.275C861.991 237.175 862.689 238.041 863.426 238.867L863.427 238.869ZM860.199 223.336C859.616 224.211 859.048 225.134 858.509 226.103C857.971 227.057 857.479 228.028 857.033 228.998C857.494 229.953 857.984 230.924 858.524 231.911C859.062 232.865 859.631 233.804 860.214 234.695C861.229 234.759 862.289 234.791 863.365 234.791C864.456 234.791 865.517 234.759 866.545 234.679C867.099 233.804 867.667 232.865 868.205 231.894C868.743 230.923 869.25 229.937 869.696 228.983C869.25 228.043 868.745 227.073 868.205 226.103C867.666 225.132 867.099 224.209 866.53 223.336C865.501 223.256 864.44 223.208 863.365 223.208C862.29 223.208 861.229 223.257 860.199 223.336ZM855.128 233.981C856.184 234.215 857.251 234.391 858.325 234.507C857.956 233.902 857.587 233.298 857.234 232.661C856.896 232.041 856.557 231.42 856.25 230.8C855.823 231.839 855.448 232.901 855.128 233.981ZM869.494 232.645C869.141 233.281 868.787 233.886 868.434 234.475C869.524 234.342 870.606 234.15 871.677 233.901C871.342 232.824 870.952 231.767 870.508 230.734C870.187 231.37 869.85 232.007 869.496 232.645H869.494ZM852.5 224.85C849.366 225.995 847.476 227.669 847.476 228.971C847.476 229.576 847.906 230.339 848.766 231.103C849.981 232.09 851.355 232.844 852.823 233.33C853.1 233.426 853.392 233.505 853.684 233.601C854.158 232.031 854.727 230.495 855.39 229.002C854.726 227.533 854.161 226.018 853.699 224.467C853.284 224.577 852.885 224.705 852.5 224.85ZM871.356 228.971C872.037 230.445 872.623 231.965 873.108 233.522C873.308 233.458 873.508 233.394 873.692 233.331C877.119 232.153 879.24 230.355 879.255 228.954C879.255 227.649 877.288 225.963 874.076 224.817C873.754 224.706 873.4 224.595 873.047 224.483C872.578 226.016 872.014 227.514 871.356 228.969V228.971ZM869.481 225.309C869.835 225.945 870.173 226.567 870.482 227.188C870.908 226.177 871.278 225.141 871.589 224.086C870.543 223.839 869.487 223.647 868.423 223.511C868.789 224.1 869.143 224.689 869.481 225.309ZM855.143 224.067C855.451 225.085 855.819 226.119 856.25 227.185C856.557 226.565 856.896 225.944 857.234 225.324C857.571 224.704 857.925 224.099 858.294 223.51C857.188 223.655 856.143 223.846 855.143 224.067ZM865.209 217.306C864.948 217.544 864.687 217.799 864.426 218.054C865.488 219.243 866.469 220.508 867.361 221.841C868.922 221.987 870.472 222.242 872.001 222.605C872.063 222.367 872.109 222.127 872.155 221.889C872.877 218.23 872.432 215.428 871.263 214.729C871.004 214.589 870.714 214.521 870.422 214.53C869.167 214.53 867.241 215.479 865.209 217.306ZM855.374 214.775C854.283 215.427 853.853 218.037 854.498 221.474C854.575 221.839 854.652 222.205 854.744 222.587C856.275 222.238 857.825 221.989 859.385 221.84C860.28 220.506 861.266 219.24 862.335 218.053C862.166 217.877 861.982 217.718 861.813 217.559C859.672 215.594 857.618 214.557 856.275 214.557C855.962 214.546 855.651 214.621 855.374 214.775ZM865.424 221.712C864.789 220.82 864.107 219.964 863.38 219.151C862.689 219.93 861.997 220.79 861.321 221.712C861.997 221.681 862.673 221.665 863.365 221.665C864.057 221.665 864.748 221.681 865.424 221.712ZM860.29 229.033C860.286 228.392 860.464 227.764 860.803 227.229C861.141 226.694 861.624 226.276 862.191 226.027C862.758 225.779 863.382 225.711 863.986 225.834C864.589 225.956 865.144 226.263 865.58 226.714C866.016 227.166 866.314 227.743 866.436 228.371C866.557 229 866.497 229.651 866.263 230.244C866.028 230.837 865.631 231.344 865.12 231.7C864.609 232.057 864.008 232.247 863.393 232.247C862.987 232.25 862.584 232.169 862.208 232.008C861.832 231.848 861.49 231.612 861.201 231.313C860.913 231.014 860.684 230.659 860.527 230.268C860.371 229.877 860.29 229.457 860.29 229.033Z" fill="#4763FF"/>
<path d="M887 199.5H839C835.962 199.5 833.5 201.962 833.5 205V253C833.5 256.038 835.962 258.5 839 258.5H887C890.038 258.5 892.5 256.038 892.5 253V205C892.5 201.962 890.038 199.5 887 199.5Z" stroke="url(#paint11_linear_17_40)"/>
<path d="M1176.04 229.334H1144C1141.97 229.334 1140.33 230.978 1140.33 233.005V265.045C1140.33 267.073 1141.97 268.716 1144 268.716H1176.04C1178.07 268.716 1179.71 267.073 1179.71 265.045V233.005C1179.71 230.978 1178.07 229.334 1176.04 229.334Z" fill="#121214"/>
<path d="M1176.04 229.334H1144C1141.97 229.334 1140.33 230.978 1140.33 233.005V265.045C1140.33 267.073 1141.97 268.716 1144 268.716H1176.04C1178.07 268.716 1179.71 267.073 1179.71 265.045V233.005C1179.71 230.978 1178.07 229.334 1176.04 229.334Z" fill="url(#paint12_linear_17_40)"/>
<path d="M1151.92 244.457H1157.71V244.912H1152.45V248.337H1157.4V248.793H1152.45V252.553H1157.77V253.009H1151.92V244.457ZM1158.23 244.457H1158.85L1161.57 248.218L1164.36 244.457L1168.15 239.68L1161.92 248.613L1165.13 253.009H1164.49L1161.57 249.008L1158.64 253.009H1158.01L1161.25 248.613L1158.23 244.457ZM1165.36 244.912V244.457H1171.97V244.912H1168.92V253.008H1168.39V244.912H1165.36ZM1144.67 244.457H1145.34L1154.49 257.996L1150.71 253.009L1145.23 245.104L1145.2 253.009H1144.67V244.457ZM1171.91 252.416C1171.8 252.416 1171.72 252.333 1171.72 252.226C1171.72 252.118 1171.8 252.035 1171.91 252.035C1172.02 252.035 1172.1 252.118 1172.1 252.226C1172.1 252.333 1172.02 252.416 1171.91 252.416ZM1172.43 251.915H1172.72C1172.72 252.067 1172.83 252.169 1173 252.169C1173.18 252.169 1173.29 252.059 1173.29 251.853V250.55H1173.58V251.855C1173.58 252.226 1173.36 252.439 1173 252.439C1172.67 252.439 1172.43 252.232 1172.43 251.915ZM1173.96 251.898H1174.24C1174.27 252.073 1174.44 252.185 1174.69 252.185C1174.92 252.185 1175.09 252.066 1175.09 251.902C1175.09 251.762 1174.98 251.677 1174.74 251.62L1174.5 251.562C1174.16 251.484 1174.01 251.323 1174.01 251.052C1174.01 250.723 1174.28 250.505 1174.68 250.505C1175.06 250.505 1175.34 250.723 1175.36 251.034H1175.07C1175.05 250.864 1174.9 250.758 1174.68 250.758C1174.45 250.758 1174.3 250.867 1174.3 251.033C1174.3 251.164 1174.4 251.24 1174.64 251.296L1174.85 251.346C1175.23 251.434 1175.39 251.588 1175.39 251.865C1175.39 252.218 1175.11 252.439 1174.67 252.439C1174.25 252.439 1173.98 252.228 1173.96 251.898Z" fill="white"/>
<path d="M1176.04 229.334H1144C1141.97 229.334 1140.33 230.978 1140.33 233.005V265.045C1140.33 267.073 1141.97 268.716 1144 268.716H1176.04C1178.07 268.716 1179.71 267.073 1179.71 265.045V233.005C1179.71 230.978 1178.07 229.334 1176.04 229.334Z" stroke="url(#paint13_linear_17_40)" stroke-width="0.6675"/>
<path d="M124.045 419.334H92.0051C89.9775 419.334 88.3338 420.978 88.3338 423.005V455.045C88.3338 457.073 89.9775 458.716 92.0051 458.716H124.045C126.073 458.716 127.716 457.073 127.716 455.045V423.005C127.716 420.978 126.073 419.334 124.045 419.334Z" fill="#121214"/>
<path d="M124.045 419.334H92.0051C89.9775 419.334 88.3338 420.978 88.3338 423.005V455.045C88.3338 457.073 89.9775 458.716 92.0051 458.716H124.045C126.073 458.716 127.716 457.073 127.716 455.045V423.005C127.716 420.978 126.073 419.334 124.045 419.334Z" fill="url(#paint14_linear_17_40)"/>
<path d="M107.793 428.345C102.023 428.345 97.3447 433.251 97.3447 439.297C97.3447 444.136 100.34 448.236 104.49 449.686C104.549 449.699 104.608 449.705 104.668 449.705C105.055 449.705 105.204 449.414 105.204 449.161C105.204 448.899 105.195 448.212 105.19 447.297C104.845 447.38 104.491 447.423 104.136 447.426C102.126 447.426 101.669 445.828 101.669 445.828C101.193 444.565 100.507 444.226 100.507 444.226C99.5977 443.573 100.503 443.554 100.572 443.554H100.578C101.627 443.65 102.177 444.689 102.177 444.689C102.699 445.623 103.399 445.886 104.024 445.886C104.437 445.877 104.844 445.78 105.218 445.6C105.311 444.894 105.582 444.412 105.881 444.136C103.563 443.859 101.123 442.92 101.123 438.724C101.123 437.528 101.529 436.55 102.196 435.787C102.089 435.511 101.729 434.395 102.298 432.888C102.375 432.87 102.453 432.862 102.531 432.865C102.91 432.865 103.763 433.012 105.172 434.014C106.883 433.524 108.693 433.524 110.405 434.014C111.813 433.012 112.667 432.865 113.045 432.865C113.123 432.862 113.202 432.87 113.278 432.888C113.847 434.395 113.488 435.511 113.381 435.787C114.048 436.555 114.453 437.532 114.453 438.724C114.453 442.93 112.009 443.855 109.682 444.126C110.055 444.465 110.391 445.132 110.391 446.153C110.391 447.616 110.377 448.799 110.377 449.156C110.377 449.414 110.522 449.705 110.908 449.705C110.971 449.705 111.034 449.699 111.095 449.686C115.251 448.236 118.24 444.131 118.24 439.297C118.24 433.251 113.563 428.345 107.793 428.345Z" fill="white"/>
<path d="M124.045 419.334H92.0051C89.9775 419.334 88.3338 420.978 88.3338 423.005V455.045C88.3338 457.073 89.9775 458.716 92.0051 458.716H124.045C126.073 458.716 127.716 457.073 127.716 455.045V423.005C127.716 420.978 126.073 419.334 124.045 419.334Z" stroke="url(#paint15_linear_17_40)" stroke-width="0.6675"/>
<path d="M1123 440.333H1091C1088.97 440.333 1087.33 441.975 1087.33 444V476C1087.33 478.025 1088.97 479.666 1091 479.666H1123C1125.02 479.666 1126.66 478.025 1126.66 476V444C1126.66 441.975 1125.02 440.333 1123 440.333Z" fill="#121214"/>
<path d="M1123 440.333H1091C1088.97 440.333 1087.33 441.975 1087.33 444V476C1087.33 478.025 1088.97 479.666 1091 479.666H1123C1125.02 479.666 1126.66 478.025 1126.66 476V444C1126.66 441.975 1125.02 440.333 1123 440.333Z" fill="url(#paint16_linear_17_40)"/>
<path fill-rule="evenodd" clip-rule="evenodd" d="M1107 451.333L1117 468.666H1097L1107 451.333Z" fill="white"/>
<path d="M1123 440.333H1091C1088.97 440.333 1087.33 441.975 1087.33 444V476C1087.33 478.025 1088.97 479.666 1091 479.666H1123C1125.02 479.666 1126.66 478.025 1126.66 476V444C1126.66 441.975 1125.02 440.333 1123 440.333Z" stroke="url(#paint17_linear_17_40)" stroke-width="0.666667"/>
<path d="M1066.04 114.334H1034C1031.97 114.334 1030.33 115.978 1030.33 118.005V150.045C1030.33 152.073 1031.97 153.717 1034 153.717H1066.04C1068.07 153.717 1069.71 152.073 1069.71 150.045V118.005C1069.71 115.978 1068.07 114.334 1066.04 114.334Z" fill="#121214"/>
<path d="M1066.04 114.334H1034C1031.97 114.334 1030.33 115.978 1030.33 118.005V150.045C1030.33 152.073 1031.97 153.717 1034 153.717H1066.04C1068.07 153.717 1069.71 152.073 1069.71 150.045V118.005C1069.71 115.978 1068.07 114.334 1066.04 114.334Z" fill="url(#paint18_linear_17_40)"/>
<path d="M1047.05 127.936C1044.22 127.428 1041.99 127.96 1041.1 129.483C1040.43 130.62 1040.62 132.127 1041.56 133.739C1041.58 133.772 1041.6 133.802 1041.63 133.825C1041.66 133.849 1041.7 133.867 1041.74 133.877C1041.77 133.888 1041.81 133.89 1041.85 133.886C1041.89 133.881 1041.92 133.869 1041.96 133.85C1041.99 133.831 1042.02 133.806 1042.04 133.775C1042.07 133.745 1042.08 133.71 1042.09 133.674C1042.1 133.637 1042.11 133.598 1042.1 133.561C1042.09 133.523 1042.08 133.487 1042.06 133.454C1041.22 132.003 1041.06 130.702 1041.6 129.77C1042.34 128.504 1044.33 128.029 1046.94 128.499C1047.02 128.512 1047.09 128.494 1047.16 128.451C1047.22 128.408 1047.26 128.342 1047.27 128.268C1047.29 128.194 1047.27 128.118 1047.23 128.056C1047.19 127.994 1047.12 127.951 1047.05 127.936ZM1043.03 135.697C1044.17 136.937 1045.65 138.101 1047.35 139.066C1051.44 141.404 1055.8 142.029 1057.95 140.58C1057.99 140.559 1058.01 140.532 1058.03 140.501C1058.06 140.469 1058.07 140.434 1058.08 140.397C1058.09 140.359 1058.09 140.321 1058.08 140.284C1058.07 140.246 1058.05 140.211 1058.03 140.18C1058.01 140.148 1057.98 140.122 1057.95 140.101C1057.92 140.08 1057.88 140.066 1057.85 140.059C1057.81 140.053 1057.77 140.053 1057.73 140.062C1057.69 140.07 1057.66 140.085 1057.63 140.107C1055.7 141.404 1051.56 140.81 1047.64 138.571C1045.99 137.634 1044.56 136.507 1043.46 135.312C1043.43 135.284 1043.4 135.261 1043.37 135.245C1043.33 135.229 1043.29 135.22 1043.26 135.218C1043.22 135.216 1043.18 135.222 1043.14 135.234C1043.11 135.247 1043.07 135.267 1043.05 135.292C1043.02 135.317 1043 135.348 1042.98 135.382C1042.96 135.416 1042.95 135.453 1042.95 135.491C1042.95 135.528 1042.96 135.566 1042.97 135.601C1042.98 135.637 1043 135.669 1043.03 135.697Z" fill="#62DCF4"/>
<path d="M1057.27 135.349C1059.12 133.19 1059.76 131.018 1058.87 129.498C1058.22 128.379 1056.84 127.789 1055 127.765C1054.93 127.765 1054.85 127.795 1054.8 127.848C1054.74 127.901 1054.71 127.972 1054.71 128.048C1054.71 128.123 1054.74 128.195 1054.79 128.25C1054.85 128.304 1054.92 128.336 1054.99 128.338C1056.65 128.359 1057.84 128.868 1058.37 129.784C1059.11 131.047 1058.53 132.984 1056.82 134.979C1056.8 135.008 1056.78 135.041 1056.77 135.077C1056.76 135.113 1056.75 135.151 1056.75 135.189C1056.76 135.227 1056.77 135.263 1056.79 135.297C1056.8 135.331 1056.83 135.361 1056.86 135.385C1056.89 135.41 1056.92 135.428 1056.96 135.44C1056.99 135.451 1057.03 135.455 1057.07 135.452C1057.11 135.449 1057.14 135.438 1057.18 135.42C1057.21 135.403 1057.24 135.378 1057.27 135.349ZM1052.51 128.032C1050.84 128.386 1049.06 129.078 1047.35 130.053C1043.12 132.467 1040.37 136.025 1040.75 138.605C1040.75 138.643 1040.77 138.679 1040.79 138.712C1040.8 138.744 1040.83 138.773 1040.86 138.796C1040.89 138.819 1040.93 138.835 1040.96 138.845C1041 138.854 1041.04 138.856 1041.08 138.85C1041.12 138.845 1041.15 138.832 1041.18 138.812C1041.22 138.793 1041.25 138.767 1041.27 138.737C1041.29 138.706 1041.31 138.671 1041.32 138.635C1041.33 138.598 1041.33 138.56 1041.32 138.522C1040.98 136.231 1043.6 132.858 1047.64 130.549C1049.3 129.603 1051.02 128.933 1052.64 128.591C1052.67 128.584 1052.71 128.569 1052.74 128.548C1052.77 128.527 1052.8 128.5 1052.82 128.468C1052.84 128.436 1052.86 128.401 1052.86 128.363C1052.87 128.326 1052.87 128.288 1052.86 128.251C1052.85 128.213 1052.84 128.178 1052.82 128.147C1052.79 128.116 1052.77 128.089 1052.73 128.069C1052.7 128.049 1052.67 128.035 1052.63 128.028C1052.59 128.022 1052.55 128.023 1052.51 128.032Z" fill="#62DCF4"/>
<path d="M1045.66 140.394C1046.63 143.062 1048.21 144.705 1049.99 144.705C1051.29 144.705 1052.49 143.831 1053.42 142.293C1053.44 142.26 1053.46 142.225 1053.46 142.187C1053.47 142.15 1053.47 142.111 1053.46 142.074C1053.45 142.038 1053.43 142.003 1053.41 141.972C1053.39 141.942 1053.36 141.916 1053.33 141.896C1053.29 141.877 1053.26 141.864 1053.22 141.858C1053.18 141.853 1053.14 141.855 1053.11 141.864C1053.07 141.874 1053.03 141.89 1053 141.913C1052.97 141.936 1052.95 141.965 1052.93 141.998C1052.09 143.381 1051.05 144.133 1049.99 144.133C1048.51 144.133 1047.1 142.667 1046.21 140.201C1046.2 140.165 1046.18 140.132 1046.15 140.103C1046.13 140.074 1046.09 140.051 1046.06 140.035C1046.03 140.018 1045.99 140.008 1045.95 140.006C1045.91 140.004 1045.87 140.01 1045.84 140.023C1045.8 140.035 1045.77 140.055 1045.74 140.081C1045.71 140.107 1045.69 140.138 1045.67 140.172C1045.65 140.207 1045.65 140.244 1045.64 140.282C1045.64 140.32 1045.65 140.358 1045.66 140.394ZM1054.49 139.872C1054.99 138.291 1055.26 136.468 1055.26 134.567C1055.26 129.825 1053.58 125.737 1051.19 124.688C1051.12 124.659 1051.04 124.658 1050.97 124.686C1050.9 124.713 1050.85 124.767 1050.82 124.836C1050.79 124.904 1050.78 124.982 1050.81 125.052C1050.84 125.122 1050.89 125.179 1050.96 125.211C1053.09 126.147 1054.68 130.027 1054.68 134.567C1054.68 136.411 1054.42 138.177 1053.94 139.701C1053.93 139.737 1053.92 139.775 1053.93 139.813C1053.93 139.851 1053.94 139.888 1053.96 139.921C1053.98 139.955 1054 139.985 1054.03 140.009C1054.06 140.034 1054.09 140.052 1054.13 140.064C1054.17 140.075 1054.21 140.079 1054.24 140.075C1054.28 140.072 1054.32 140.061 1054.35 140.043C1054.39 140.025 1054.42 140.001 1054.44 139.972C1054.47 139.942 1054.48 139.908 1054.49 139.872ZM1059.95 139.592C1059.95 138.835 1059.33 138.222 1058.56 138.222C1057.8 138.222 1057.18 138.835 1057.18 139.592C1057.18 140.348 1057.8 140.962 1058.56 140.962C1059.33 140.962 1059.95 140.348 1059.95 139.592ZM1059.37 139.592C1059.37 139.696 1059.35 139.8 1059.31 139.897C1059.27 139.994 1059.21 140.082 1059.13 140.156C1059.06 140.23 1058.97 140.288 1058.87 140.328C1058.77 140.369 1058.67 140.389 1058.56 140.389C1058.46 140.389 1058.35 140.369 1058.25 140.328C1058.16 140.288 1058.07 140.23 1057.99 140.156C1057.92 140.082 1057.86 139.994 1057.82 139.897C1057.78 139.8 1057.76 139.696 1057.76 139.592C1057.76 139.38 1057.84 139.177 1057.99 139.028C1058.14 138.878 1058.35 138.794 1058.56 138.794C1058.78 138.794 1058.98 138.878 1059.13 139.028C1059.28 139.177 1059.37 139.38 1059.37 139.592ZM1041.4 140.962C1042.16 140.962 1042.78 140.348 1042.78 139.592C1042.78 138.835 1042.16 138.222 1041.4 138.222C1040.63 138.222 1040.01 138.835 1040.01 139.592C1040.01 140.348 1040.63 140.962 1041.4 140.962ZM1041.4 140.389C1041.18 140.389 1040.98 140.305 1040.83 140.156C1040.68 140.006 1040.59 139.803 1040.59 139.592C1040.59 139.38 1040.68 139.177 1040.83 139.028C1040.98 138.878 1041.18 138.794 1041.4 138.794C1041.61 138.794 1041.82 138.878 1041.97 139.028C1042.12 139.177 1042.2 139.38 1042.2 139.592C1042.2 139.803 1042.12 140.006 1041.97 140.156C1041.82 140.305 1041.61 140.389 1041.4 140.389Z" fill="#62DCF4"/>
<path d="M1049.99 126.085C1050.76 126.085 1051.38 125.472 1051.38 124.715C1051.38 123.959 1050.76 123.345 1049.99 123.345C1049.22 123.345 1048.6 123.959 1048.6 124.715C1048.6 125.472 1049.22 126.085 1049.99 126.085ZM1049.99 125.513C1049.78 125.513 1049.57 125.429 1049.42 125.279C1049.27 125.13 1049.18 124.927 1049.18 124.715C1049.18 124.504 1049.27 124.301 1049.42 124.151C1049.57 124.002 1049.78 123.918 1049.99 123.918C1050.2 123.918 1050.41 124.002 1050.56 124.151C1050.71 124.301 1050.8 124.504 1050.8 124.715C1050.8 124.927 1050.71 125.13 1050.56 125.279C1050.41 125.429 1050.2 125.513 1049.99 125.513ZM1050.2 135.536C1049.66 135.651 1049.13 135.311 1049.01 134.776C1048.95 134.519 1049 134.251 1049.15 134.03C1049.29 133.809 1049.52 133.654 1049.78 133.598C1050.32 133.483 1050.85 133.823 1050.97 134.358C1051.09 134.893 1050.74 135.42 1050.2 135.536Z" fill="#62DCF4"/>
<path d="M1066.04 114.334H1034C1031.97 114.334 1030.33 115.978 1030.33 118.005V150.045C1030.33 152.073 1031.97 153.717 1034 153.717H1066.04C1068.07 153.717 1069.71 152.073 1069.71 150.045V118.005C1069.71 115.978 1068.07 114.334 1066.04 114.334Z" stroke="url(#paint19_linear_17_40)" stroke-width="0.6675"/>
<path d="M75.0451 276.334H43.0051C40.9775 276.334 39.3338 277.978 39.3338 280.005V312.045C39.3338 314.073 40.9775 315.716 43.0051 315.716H75.0451C77.0726 315.716 78.7163 314.073 78.7163 312.045V280.005C78.7163 277.978 77.0726 276.334 75.0451 276.334Z" fill="#121214"/>
<path d="M75.0451 276.334H43.0051C40.9775 276.334 39.3338 277.978 39.3338 280.005V312.045C39.3338 314.073 40.9775 315.716 43.0051 315.716H75.0451C77.0726 315.716 78.7163 314.073 78.7163 312.045V280.005C78.7163 277.978 77.0726 276.334 75.0451 276.334Z" fill="url(#paint20_linear_17_40)"/>
<path d="M49 300.982L51.4378 299.531C51.908 300.351 52.3361 301.045 53.3624 301.045C54.3457 301.045 54.9661 300.669 54.9661 299.194V289.18H57.9598V299.235C57.9598 302.286 56.1425 303.674 53.491 303.674C52.5537 303.724 51.6229 303.494 50.8214 303.013C50.0199 302.532 49.3851 301.824 49.0008 300.981L49 300.982ZM59.5865 300.666L62.0243 299.277C62.2953 299.818 62.716 300.273 63.238 300.589C63.76 300.905 64.3621 301.07 64.9752 301.065C66.2159 301.065 67.0062 300.455 67.0062 299.613C67.0062 298.603 66.1937 298.245 64.8251 297.654L64.0791 297.342C61.9194 296.438 60.4864 295.302 60.4864 292.903C60.4864 290.694 62.1974 289.011 64.8702 289.011C65.7363 288.95 66.6017 289.14 67.3584 289.559C68.1151 289.978 68.7297 290.607 69.1254 291.368L66.7941 292.841C66.6411 292.463 66.3751 292.14 66.0314 291.915C65.6877 291.69 65.2825 291.572 64.8695 291.579C64.6894 291.561 64.5075 291.58 64.3355 291.635C64.1634 291.69 64.0049 291.78 63.87 291.899C63.7352 292.017 63.627 292.162 63.5524 292.325C63.4777 292.487 63.4383 292.663 63.4365 292.841C63.4365 293.724 63.9926 294.082 65.2746 294.629L66.0229 294.944C68.5678 296.017 70 297.111 70 299.572C70 302.223 67.8831 303.675 65.0395 303.675C62.2594 303.675 60.4635 302.371 59.5865 300.666Z" fill="#E6D130"/>
<path d="M75.0451 276.334H43.0051C40.9775 276.334 39.3338 277.978 39.3338 280.005V312.045C39.3338 314.073 40.9775 315.716 43.0051 315.716H75.0451C77.0726 315.716 78.7163 314.073 78.7163 312.045V280.005C78.7163 277.978 77.0726 276.334 75.0451 276.334Z" stroke="url(#paint21_linear_17_40)" stroke-width="0.6675"/>
<path d="M263 204.5H215C211.962 204.5 209.5 206.962 209.5 210V258C209.5 261.038 211.962 263.5 215 263.5H263C266.038 263.5 268.5 261.038 268.5 258V210C268.5 206.962 266.038 204.5 263 204.5Z" fill="#121214"/>
<path d="M263 204.5H215C211.962 204.5 209.5 206.962 209.5 210V258C209.5 261.038 211.962 263.5 215 263.5H263C266.038 263.5 268.5 261.038 268.5 258V210C268.5 206.962 266.038 204.5 263 204.5Z" fill="url(#paint22_linear_17_40)"/>
<path d="M238.038 218.341C238.432 218.117 238.877 218 239.33 218C239.782 218 240.227 218.117 240.622 218.341C244.557 220.595 248.493 222.847 252.429 225.1C252.799 225.314 253.107 225.622 253.323 225.994C253.538 226.367 253.653 226.79 253.657 227.222V240.784C253.649 241.231 253.522 241.668 253.29 242.049C253.058 242.43 252.729 242.74 252.338 242.948C248.415 245.189 244.493 247.431 240.572 249.674C240.17 249.9 239.715 250.012 239.256 249.999C238.796 249.986 238.348 249.849 237.959 249.601C236.783 248.91 235.607 248.22 234.429 247.532C234.171 247.414 233.939 247.243 233.748 247.03C233.898 246.828 234.167 246.799 234.384 246.709C234.867 246.534 235.333 246.314 235.776 246.051C235.832 246.017 235.896 246.001 235.961 246.005C236.025 246.009 236.087 246.033 236.139 246.073C237.145 246.657 238.141 247.258 239.15 247.837C239.366 247.963 239.583 247.795 239.767 247.692C243.616 245.487 247.467 243.284 251.319 241.085C251.387 241.05 251.444 240.995 251.481 240.927C251.519 240.859 251.535 240.782 251.528 240.704C251.528 236.232 251.528 231.759 251.528 227.285C251.535 227.198 251.515 227.111 251.471 227.036C251.427 226.961 251.361 226.902 251.282 226.867C247.372 224.636 243.464 222.404 239.557 220.171C239.49 220.124 239.409 220.099 239.327 220.099C239.245 220.099 239.165 220.124 239.097 220.171C235.187 222.403 231.279 224.636 227.374 226.87C227.295 226.904 227.228 226.963 227.184 227.037C227.139 227.112 227.119 227.199 227.126 227.286C227.126 231.758 227.126 236.231 227.126 240.705C227.12 240.782 227.136 240.86 227.174 240.927C227.212 240.995 227.27 241.049 227.339 241.082C228.382 241.681 229.426 242.278 230.469 242.874C230.759 243.055 231.083 243.173 231.42 243.219C231.757 243.265 232.1 243.238 232.427 243.14C232.71 243.032 232.953 242.839 233.125 242.587C233.297 242.335 233.389 242.036 233.388 241.73C233.393 237.283 233.388 232.836 233.388 228.39C233.387 228.343 233.396 228.296 233.414 228.253C233.432 228.209 233.459 228.17 233.492 228.138C233.526 228.106 233.567 228.081 233.611 228.066C233.655 228.05 233.702 228.045 233.748 228.049C234.245 228.049 234.751 228.042 235.252 228.049C235.301 228.051 235.348 228.064 235.391 228.086C235.435 228.108 235.473 228.139 235.504 228.177C235.535 228.215 235.557 228.259 235.57 228.306C235.583 228.354 235.586 228.403 235.579 228.452C235.579 232.927 235.584 237.402 235.579 241.876C235.612 242.484 235.484 243.089 235.208 243.63C234.932 244.171 234.518 244.626 234.008 244.949C233.328 245.271 232.583 245.427 231.833 245.406C231.082 245.386 230.347 245.188 229.685 244.83C228.538 244.249 227.443 243.565 226.317 242.944C225.926 242.737 225.598 242.427 225.366 242.047C225.134 241.667 225.008 241.231 225 240.784V227.222C225.003 226.781 225.123 226.349 225.347 225.971C225.571 225.593 225.89 225.283 226.272 225.073C230.196 222.83 234.117 220.586 238.038 218.341Z" fill="#8CC84B"/>
<path d="M241.796 228.094C243.529 227.867 245.29 228.14 246.876 228.882C247.451 229.23 247.927 229.724 248.255 230.315C248.584 230.906 248.755 231.574 248.75 232.252C248.728 232.337 248.676 232.411 248.604 232.46C248.532 232.509 248.446 232.531 248.36 232.52C247.862 232.52 247.365 232.527 246.868 232.52C246.773 232.514 246.683 232.472 246.617 232.402C246.551 232.332 246.512 232.24 246.51 232.143C246.453 231.815 246.327 231.503 246.14 231.228C245.953 230.954 245.709 230.725 245.425 230.556C244.481 230.176 243.462 230.028 242.451 230.124C241.706 230.101 240.969 230.287 240.321 230.661C240.098 230.837 239.935 231.078 239.855 231.352C239.774 231.626 239.781 231.919 239.873 232.189C240.032 232.573 240.469 232.692 240.827 232.81C242.889 233.356 245.073 233.302 247.095 234.019C247.529 234.141 247.93 234.363 248.267 234.666C248.604 234.97 248.867 235.347 249.038 235.77C249.24 236.37 249.289 237.012 249.18 237.637C249.071 238.261 248.806 238.847 248.412 239.34C247.699 240.09 246.773 240.595 245.763 240.786C244.447 241.057 243.097 241.115 241.764 240.959C240.484 240.885 239.256 240.417 238.246 239.618C237.845 239.245 237.53 238.788 237.323 238.278C237.117 237.767 237.025 237.217 237.053 236.667C237.062 236.578 237.105 236.496 237.174 236.439C237.242 236.383 237.33 236.356 237.418 236.365C237.915 236.365 238.417 236.36 238.917 236.365C238.963 236.364 239.009 236.372 239.052 236.389C239.095 236.406 239.135 236.432 239.168 236.464C239.201 236.497 239.228 236.536 239.246 236.579C239.264 236.622 239.274 236.668 239.275 236.715C239.299 237.028 239.387 237.332 239.533 237.61C239.678 237.887 239.878 238.131 240.119 238.327C241.19 238.861 242.386 239.081 243.573 238.964C244.567 239.04 245.558 238.793 246.404 238.259C246.599 238.066 246.74 237.825 246.815 237.56C246.889 237.295 246.894 237.015 246.83 236.747C246.708 236.3 246.246 236.092 245.849 235.956C243.815 235.303 241.606 235.54 239.587 234.802C239.164 234.677 238.773 234.46 238.441 234.167C238.109 233.873 237.843 233.511 237.663 233.103C237.432 232.496 237.373 231.834 237.494 231.194C237.616 230.554 237.912 229.961 238.349 229.484C239.302 228.631 240.515 228.137 241.785 228.084L241.796 228.094Z" fill="#8CC84B"/>
<path d="M263 204.5H215C211.962 204.5 209.5 206.962 209.5 210V258C209.5 261.038 211.962 263.5 215 263.5H263C266.038 263.5 268.5 261.038 268.5 258V210C268.5 206.962 266.038 204.5 263 204.5Z" stroke="url(#paint23_linear_17_40)"/>
<g filter="url(#filter0_f_17_40)">
<path d="M664 169H554V279H664V169Z" fill="url(#paint24_linear_17_40)"/>
</g>
<path d="M658 169.5H560C556.962 169.5 554.5 171.962 554.5 175V273C554.5 276.038 556.962 278.5 560 278.5H658C661.038 278.5 663.5 276.038 663.5 273V175C663.5 171.962 661.038 169.5 658 169.5Z" fill="#121214"/>
<path d="M658 169.5H560C556.962 169.5 554.5 171.962 554.5 175V273C554.5 276.038 556.962 278.5 560 278.5H658C661.038 278.5 663.5 276.038 663.5 273V175C663.5 171.962 661.038 169.5 658 169.5Z" fill="url(#paint25_linear_17_40)"/>
<path d="M658 169.5H560C556.962 169.5 554.5 171.962 554.5 175V273C554.5 276.038 556.962 278.5 560 278.5H658C661.038 278.5 663.5 276.038 663.5 273V175C663.5 171.962 661.038 169.5 658 169.5Z" stroke="url(#paint26_linear_17_40)"/>
<path d="M579 224V254H639V194H579V224ZM627.35 221.6C628.787 221.933 630.094 222.685 631.104 223.76C631.66 224.339 632.144 224.984 632.544 225.68C632.544 225.757 629.952 227.509 628.373 228.488C628.315 228.526 628.085 228.277 627.83 227.898C627.542 227.4 627.132 226.984 626.64 226.688C626.147 226.391 625.587 226.225 625.013 226.203C623.194 226.078 622.022 227.034 622.032 228.603C622.017 228.994 622.106 229.382 622.291 229.726C622.69 230.557 623.434 231.051 625.766 232.059C630.062 233.907 631.901 235.126 633.043 236.859C634.32 238.779 634.603 241.88 633.739 244.174C632.779 246.67 630.427 248.365 627.101 248.926C625.582 249.1 624.046 249.084 622.531 248.878C620.209 248.496 618.07 247.381 616.426 245.696C615.874 245.086 614.798 243.498 614.866 243.382C615.041 243.252 615.225 243.135 615.418 243.032L617.64 241.803L619.363 240.805L619.723 241.338C620.331 242.207 621.104 242.947 621.998 243.517C623.918 244.525 626.539 244.386 627.835 243.219C628.27 242.792 628.542 242.225 628.602 241.618C628.663 241.011 628.509 240.403 628.166 239.898C627.686 239.23 626.726 238.669 624.043 237.498C620.947 236.163 619.613 235.338 618.394 234.022C617.632 233.155 617.071 232.131 616.747 231.022C616.506 229.756 616.47 228.46 616.642 227.182C617.28 224.192 619.522 222.104 622.795 221.485C624.311 221.297 625.847 221.339 627.35 221.61V221.6ZM613.267 224.115V226.573H605.477V248.763H599.952V226.568H592.142V224.168C592.118 223.34 592.137 222.512 592.2 221.686C592.238 221.643 597 221.643 602.76 221.643H613.238L613.267 224.115Z" fill="#007ACC"/>
<defs>
<filter id="filter0_f_17_40" x="524" y="139" width="170" height="170" filterUnits="userSpaceOnUse" color-interpolation-filters="sRGB">
<feFlood flood-opacity="0" result="BackgroundImageFix"/>
<feBlend mode="normal" in="SourceGraphic" in2="BackgroundImageFix" result="shape"/>
<feGaussianBlur stdDeviation="15" result="effect1_foregroundBlur_17_40"/>
</filter>
<linearGradient id="paint0_linear_17_40" x1="690.014" y1="-3.1506" x2="690.004" y2="75" gradientUnits="userSpaceOnUse">
<stop stop-color="#323238" stop-opacity="0"/>
<stop offset="1" stop-color="#323238"/>
</linearGradient>
<linearGradient id="paint1_linear_17_40" x1="-nan" y1="-nan" x2="-nan" y2="-nan" gradientUnits="userSpaceOnUse">
<stop stop-color="#323238"/>
<stop offset="1" stop-color="#323238" stop-opacity="0"/>
</linearGradient>
<linearGradient id="paint2_linear_17_40" x1="175.506" y1="140.988" x2="179.026" y2="-11.9994" gradientUnits="userSpaceOnUse">
<stop stop-color="#323238"/>
<stop offset="1" stop-color="#323238" stop-opacity="0"/>
</linearGradient>
<linearGradient id="paint3_linear_17_40" x1="61.5" y1="297" x2="2.51989" y2="297.019" gradientUnits="userSpaceOnUse">
<stop stop-color="#323238"/>
<stop offset="1" stop-color="#323238" stop-opacity="0"/>
</linearGradient>
<linearGradient id="paint4_linear_17_40" x1="130.612" y1="439" x2="3.28127" y2="439.072" gradientUnits="userSpaceOnUse">
<stop stop-color="#323238"/>
<stop offset="1" stop-color="#323238" stop-opacity="0"/>
</linearGradient>
<linearGradient id="paint5_linear_17_40" x1="1113.27" y1="459.985" x2="1213.82" y2="459.969" gradientUnits="userSpaceOnUse">
<stop stop-color="#323238"/>
<stop offset="1" stop-color="#323238" stop-opacity="0"/>
</linearGradient>
<linearGradient id="paint6_linear_17_40" x1="1193" y1="195" x2="1216.19" y2="194.989" gradientUnits="userSpaceOnUse">
<stop stop-color="#323238"/>
<stop offset="1" stop-color="#323238" stop-opacity="0"/>
</linearGradient>
<linearGradient id="paint7_linear_17_40" x1="1104.18" y1="132.988" x2="1100.45" y2="-11.2367" gradientUnits="userSpaceOnUse">
<stop stop-color="#323238"/>
<stop offset="1" stop-color="#323238" stop-opacity="0"/>
</linearGradient>
<linearGradient id="paint8_linear_17_40" x1="358" y1="109" x2="358" y2="169" gradientUnits="userSpaceOnUse">
<stop stop-color="#202024"/>
<stop offset="1" stop-color="#202024" stop-opacity="0.2"/>
</linearGradient>
<linearGradient id="paint9_linear_17_40" x1="358" y1="109" x2="358" y2="169" gradientUnits="userSpaceOnUse">
<stop stop-color="#323238"/>
<stop offset="1" stop-color="#323238" stop-opacity="0.3"/>
</linearGradient>
<linearGradient id="paint10_linear_17_40" x1="863" y1="199" x2="863" y2="259" gradientUnits="userSpaceOnUse">
<stop stop-color="#202024"/>
<stop offset="1" stop-color="#202024" stop-opacity="0.2"/>
</linearGradient>
<linearGradient id="paint11_linear_17_40" x1="863" y1="199" x2="863" y2="259" gradientUnits="userSpaceOnUse">
<stop stop-color="#323238"/>
<stop offset="1" stop-color="#323238" stop-opacity="0.3"/>
</linearGradient>
<linearGradient id="paint12_linear_17_40" x1="1160.02" y1="229" x2="1160.02" y2="269.05" gradientUnits="userSpaceOnUse">
<stop stop-color="#202024"/>
<stop offset="1" stop-color="#202024" stop-opacity="0.2"/>
</linearGradient>
<linearGradient id="paint13_linear_17_40" x1="1160.02" y1="229" x2="1160.02" y2="269.05" gradientUnits="userSpaceOnUse">
<stop stop-color="#323238"/>
<stop offset="1" stop-color="#323238" stop-opacity="0.3"/>
</linearGradient>
<linearGradient id="paint14_linear_17_40" x1="108.025" y1="419" x2="108.025" y2="459.05" gradientUnits="userSpaceOnUse">
<stop stop-color="#202024"/>
<stop offset="1" stop-color="#202024" stop-opacity="0.2"/>
</linearGradient>
<linearGradient id="paint15_linear_17_40" x1="108.025" y1="419" x2="108.025" y2="459.05" gradientUnits="userSpaceOnUse">
<stop stop-color="#323238"/>
<stop offset="1" stop-color="#323238" stop-opacity="0.3"/>
</linearGradient>
<linearGradient id="paint16_linear_17_40" x1="1107" y1="440" x2="1107" y2="480" gradientUnits="userSpaceOnUse">
<stop stop-color="#202024"/>
<stop offset="1" stop-color="#202024" stop-opacity="0.2"/>
</linearGradient>
<linearGradient id="paint17_linear_17_40" x1="1107" y1="440" x2="1107" y2="480" gradientUnits="userSpaceOnUse">
<stop stop-color="#323238"/>
<stop offset="1" stop-color="#323238" stop-opacity="0.3"/>
</linearGradient>
<linearGradient id="paint18_linear_17_40" x1="1050.02" y1="114" x2="1050.02" y2="154.05" gradientUnits="userSpaceOnUse">
<stop stop-color="#202024"/>
<stop offset="1" stop-color="#202024" stop-opacity="0.2"/>
</linearGradient>
<linearGradient id="paint19_linear_17_40" x1="1050.02" y1="114" x2="1050.02" y2="154.05" gradientUnits="userSpaceOnUse">
<stop stop-color="#323238"/>
<stop offset="1" stop-color="#323238" stop-opacity="0.3"/>
</linearGradient>
<linearGradient id="paint20_linear_17_40" x1="59.025" y1="276" x2="59.025" y2="316.05" gradientUnits="userSpaceOnUse">
<stop stop-color="#202024"/>
<stop offset="1" stop-color="#202024" stop-opacity="0.2"/>
</linearGradient>
<linearGradient id="paint21_linear_17_40" x1="59.025" y1="276" x2="59.025" y2="316.05" gradientUnits="userSpaceOnUse">
<stop stop-color="#323238"/>
<stop offset="1" stop-color="#323238" stop-opacity="0.3"/>
</linearGradient>
<linearGradient id="paint22_linear_17_40" x1="239" y1="204" x2="239" y2="264" gradientUnits="userSpaceOnUse">
<stop stop-color="#202024"/>
<stop offset="1" stop-color="#202024" stop-opacity="0.2"/>
</linearGradient>
<linearGradient id="paint23_linear_17_40" x1="239" y1="204" x2="239" y2="264" gradientUnits="userSpaceOnUse">
<stop stop-color="#323238"/>
<stop offset="1" stop-color="#323238" stop-opacity="0.3"/>
</linearGradient>
<linearGradient id="paint24_linear_17_40" x1="656.85" y1="176.15" x2="554" y2="279" gradientUnits="userSpaceOnUse">
<stop offset="0.348958" stop-color="#00B37E"/>
<stop offset="1" stop-color="#8157E4"/>
</linearGradient>
<linearGradient id="paint25_linear_17_40" x1="609" y1="169" x2="609" y2="279" gradientUnits="userSpaceOnUse">
<stop stop-color="#202024"/>
<stop offset="1" stop-color="#202024" stop-opacity="0.2"/>
</linearGradient>
<linearGradient id="paint26_linear_17_40" x1="609" y1="169" x2="609" y2="279" gradientUnits="userSpaceOnUse">
<stop stop-color="#323238"/>
<stop offset="1" stop-color="#323238" stop-opacity="0.3"/>
</linearGradient>
</defs>
</svg>
